<svg width="800" height="800" viewBox="0 0 800 800" fill="none" xmlns="http://www.w3.org/2000/svg">
<path d="M576.67 306.664C567.877 306.539 559.491 302.945 553.336 296.664C547.128 290.419 543.643 281.97 543.643 273.164C543.643 264.358 547.128 255.909 553.336 249.664L603.003 199.997C606.111 196.889 609.801 194.424 613.861 192.742C617.922 191.06 622.274 190.194 626.67 190.194C631.065 190.194 635.417 191.06 639.478 192.742C643.539 194.424 647.229 196.889 650.336 199.997C653.444 203.105 655.91 206.795 657.592 210.856C659.274 214.916 660.14 219.269 660.14 223.664C660.14 228.059 659.274 232.412 657.592 236.472C655.91 240.533 653.444 244.223 650.336 247.331L600.003 296.664C593.849 302.945 585.462 306.539 576.67 306.664ZM223.336 306.664C214.544 306.539 206.157 302.945 200.003 296.664L149.67 246.997C143.437 240.721 139.953 232.225 139.985 223.38C140.016 214.534 143.56 206.063 149.836 199.831C156.113 193.598 164.609 190.114 173.454 190.146C182.3 190.177 190.771 193.721 197.003 199.997L246.67 249.664C252.878 255.909 256.363 264.358 256.363 273.164C256.363 281.97 252.878 290.419 246.67 296.664C240.515 302.945 232.129 306.539 223.336 306.664ZM400.003 233.331C391.163 233.331 382.684 229.819 376.433 223.568C370.182 217.316 366.67 208.838 366.67 199.997V133.331H300.003C291.163 133.331 282.684 129.819 276.433 123.568C270.182 117.316 266.67 108.838 266.67 99.9974C266.67 91.1568 270.182 82.6784 276.433 76.4272C282.684 70.176 291.163 66.6641 300.003 66.6641H500.003C508.844 66.6641 517.322 70.176 523.573 76.4272C529.825 82.6784 533.336 91.1568 533.336 99.9974C533.336 108.838 529.825 117.316 523.573 123.568C517.322 129.819 508.844 133.331 500.003 133.331H433.336V199.997C433.336 208.838 429.825 217.316 423.573 223.568C417.322 229.819 408.844 233.331 400.003 233.331Z" fill="#2C54BC"/>
<path d="M399.997 733.331C556.478 733.331 683.331 606.478 683.331 449.997C683.331 293.517 556.478 166.664 399.997 166.664C243.517 166.664 116.664 293.517 116.664 449.997C116.664 606.478 243.517 733.331 399.997 733.331Z" fill="#2C54BC"/>
<path d="M490.667 568.669C515.759 549.793 534.263 523.487 543.548 493.491C552.833 463.495 552.426 431.335 542.386 401.584C532.346 371.832 513.183 346.002 487.621 327.766C462.059 309.53 431.4 299.815 400 300.003V466.669L490.667 568.669Z" fill="white"/>
</svg>
