<?xml version="1.0" encoding="utf-8"?><!-- Uploaded to: SVG Repo, www.svgrepo.com, Generator: SVG Repo Mixer Tools -->
<svg fill="#000000" width="800px" height="800px" viewBox="0 0 24 24" id="motocross" data-name="Line Color" xmlns="http://www.w3.org/2000/svg" class="icon line-color"><path id="primary" d="M17.67,15,16,9H14.35a1,1,0,0,1-.73-.31L12,7,8.44,9.85a1,1,0,0,0,.3,1.73l3.38,1.13a1,1,0,0,1,.66,1.19L12,17" style="fill: none; stroke: rgb(0, 0, 0); stroke-linecap: round; stroke-linejoin: round; stroke-width: 2;"></path><line id="primary-2" data-name="primary" x1="9" y1="12" x2="6.56" y2="15.05" style="fill: none; stroke: rgb(0, 0, 0); stroke-linecap: round; stroke-linejoin: round; stroke-width: 2;"></line><circle id="primary-3" data-name="primary" cx="13" cy="5" r="2" style="fill: none; stroke: rgb(0, 0, 0); stroke-linecap: round; stroke-linejoin: round; stroke-width: 2;"></circle><line id="primary-4" data-name="primary" x1="13.69" y1="3.12" x2="16.51" y2="4.15" style="fill: none; stroke: rgb(0, 0, 0); stroke-linecap: round; stroke-linejoin: round; stroke-width: 2;"></line><path id="secondary" d="M21,18a3,3,0,1,1-3-3A3,3,0,0,1,21,18ZM6,15a3,3,0,1,0,3,3A3,3,0,0,0,6,15Z" style="fill: none; stroke: rgb(44, 169, 188); stroke-linecap: round; stroke-linejoin: round; stroke-width: 2;"></path></svg>