<svg width="800" height="800" viewBox="0 0 800 800" fill="none" xmlns="http://www.w3.org/2000/svg">
<path d="M590.336 243.001C586.06 238.716 580.698 235.677 574.826 234.208C568.953 232.74 562.792 232.899 557.003 234.667C551.301 236.283 546.134 239.39 542.033 243.667C537.932 247.944 535.045 253.237 533.669 259.001C530.45 272.194 525.401 284.873 518.669 296.667C507.089 250.117 486.397 206.324 457.79 167.819C429.183 129.313 393.228 96.86 352.003 72.3341C346.986 68.943 341.139 66.9826 335.092 66.6635C329.045 66.3444 323.025 67.6787 317.679 70.5231C312.333 73.3675 307.863 77.6145 304.748 82.808C301.634 88.0014 299.993 93.9452 300.003 100.001C300.28 133.877 293.281 167.418 279.48 198.356C265.678 229.295 245.396 256.909 220.003 279.334C179.336 323.667 133.336 374.001 133.336 466.667C133.336 633.334 233.336 733.334 400.003 733.334C566.669 733.334 666.669 636.334 666.669 466.667C666.669 400.001 633.336 286.001 590.336 243.001Z" fill="#F2A55D"/>
</svg>
