<?xml version="1.0" encoding="utf-8"?><!-- Uploaded to: SVG Repo, www.svgrepo.com, Generator: SVG Repo Mixer Tools -->
<svg fill="#000000" width="800px" height="800px" viewBox="0 0 24 24" id="date-star" data-name="Line Color" xmlns="http://www.w3.org/2000/svg" class="icon line-color"><path id="primary" d="M20,21H4a1,1,0,0,1-1-1V9H21V20A1,1,0,0,1,20,21ZM21,5a1,1,0,0,0-1-1H4A1,1,0,0,0,3,5V9H21Z" style="fill: none; stroke: rgb(0, 0, 0); stroke-linecap: round; stroke-linejoin: round; stroke-width: 2;"></path><path id="secondary" d="M16,3V6M8,3V6" style="fill: none; stroke: rgb(44, 169, 188); stroke-linecap: round; stroke-linejoin: round; stroke-width: 2;"></path><polygon id="secondary-2" data-name="secondary" points="12 16.32 13.3 17 13.05 15.55 14.1 14.53 12.65 14.32 12 13 11.35 14.32 9.9 14.53 10.95 15.55 10.7 17 12 16.32" style="fill: none; stroke: rgb(44, 169, 188); stroke-linecap: round; stroke-linejoin: round; stroke-width: 2;"></polygon></svg>