<svg width="800" height="800" viewBox="0 0 800 800" fill="none" xmlns="http://www.w3.org/2000/svg">
<path d="M633.333 733.331C624.493 733.331 616.014 729.819 609.763 723.568C603.512 717.316 600 708.838 600 699.997V499.997C600 491.157 603.512 482.678 609.763 476.427C616.014 470.176 624.493 466.664 633.333 466.664C642.174 466.664 650.652 470.176 656.904 476.427C663.155 482.678 666.667 491.157 666.667 499.997V699.997C666.667 708.838 663.155 717.316 656.904 723.568C650.652 729.819 642.174 733.331 633.333 733.331Z" fill="white"/>
<path d="M466.669 283.336C466.653 309.716 459.679 335.624 446.453 358.448C433.227 381.272 414.215 400.205 391.336 413.336C381.741 438.634 364.676 460.413 342.409 475.783C320.142 491.152 293.726 499.383 266.669 499.383C239.613 499.383 213.197 491.152 190.93 475.783C168.663 460.413 151.598 438.634 142.003 413.336C119.155 400.184 100.177 381.242 86.9803 358.419C73.7841 335.597 66.8359 309.699 66.8359 283.336C66.8359 256.973 73.7841 231.075 86.9803 208.253C100.177 185.43 119.155 166.488 142.003 153.336C151.598 128.038 168.663 106.259 190.93 90.8895C213.197 75.5203 239.613 67.2891 266.669 67.2891C293.726 67.2891 320.142 75.5203 342.409 90.8895C364.676 106.259 381.741 128.038 391.336 153.336C414.215 166.467 433.227 185.4 446.453 208.224C459.679 231.048 466.653 256.957 466.669 283.336ZM633.336 233.336C606.814 233.336 581.379 243.872 562.625 262.625C543.872 281.379 533.336 306.814 533.336 333.336V433.336C533.336 459.858 543.872 485.293 562.625 504.047C581.379 522.8 606.814 533.336 633.336 533.336C659.858 533.336 685.293 522.8 704.047 504.047C722.8 485.293 733.336 459.858 733.336 433.336V333.336C733.336 306.814 722.8 281.379 704.047 262.625C685.293 243.872 659.858 233.336 633.336 233.336Z" fill="#2CBC66"/>
<path d="M266.669 733.331C257.829 733.331 249.35 729.819 243.099 723.568C236.848 717.316 233.336 708.838 233.336 699.997V299.997C233.336 291.157 236.848 282.678 243.099 276.427C249.35 270.176 257.829 266.664 266.669 266.664C275.51 266.664 283.988 270.176 290.239 276.427C296.491 282.678 300.003 291.157 300.003 299.997V699.997C300.003 708.838 296.491 717.316 290.239 723.568C283.988 729.819 275.51 733.331 266.669 733.331Z" fill="white"/>
<path d="M699.997 733.331H99.9974C91.1568 733.331 82.6784 729.819 76.4272 723.568C70.176 717.316 66.6641 708.838 66.6641 699.997C66.6641 691.157 70.176 682.678 76.4272 676.427C82.6784 670.176 91.1568 666.664 99.9974 666.664H699.997C708.838 666.664 717.316 670.176 723.568 676.427C729.819 682.678 733.331 691.157 733.331 699.997C733.331 708.838 729.819 717.316 723.568 723.568C717.316 729.819 708.838 733.331 699.997 733.331Z" fill="#2CBC66"/>
</svg>
