<svg width="800" height="800" viewBox="0 0 800 800" fill="none" xmlns="http://www.w3.org/2000/svg">
<path d="M675.664 130.335C657.05 109.494 634.089 92.9906 608.402 81.99C582.715 70.9893 554.927 65.7591 526.998 66.6681C479.211 71.8941 434.526 92.8879 399.998 126.335C365.469 92.8879 320.784 71.8941 272.998 66.6681C245.089 65.6716 217.302 70.8289 191.609 81.7742C165.917 92.7195 142.947 109.185 124.331 130.001C33.331 220.335 59.6643 383.335 138.331 489.001C206.2 580.167 287.712 660.329 379.998 726.668C385.768 730.995 392.785 733.335 399.998 733.335C407.21 733.335 414.228 730.995 419.998 726.668C512.283 660.329 593.795 580.167 661.664 489.001C740.331 383.335 766.664 220.335 675.664 130.335Z" fill="#E42A6D"/>
<path d="M433.333 500.003C426.345 500.021 419.528 497.842 413.846 493.775C408.163 489.708 403.903 483.957 401.667 477.336L366.667 372.003L365 377.336C362.764 383.957 358.503 389.708 352.821 393.775C347.139 397.842 340.321 400.021 333.333 400.003H233.333C224.493 400.003 216.014 396.491 209.763 390.24C203.512 383.989 200 375.51 200 366.67C200 357.829 203.512 349.351 209.763 343.1C216.014 336.848 224.493 333.336 233.333 333.336H309.333L335 256.003C337.192 249.334 341.433 243.527 347.12 239.411C352.806 235.294 359.647 233.078 366.667 233.078C373.687 233.078 380.527 235.294 386.214 239.411C391.9 243.527 396.141 249.334 398.333 256.003L433.333 361.336L435 356.003C437.236 349.382 441.497 343.632 447.179 339.565C452.861 335.497 459.679 333.318 466.667 333.336H566.667C575.507 333.336 583.986 336.848 590.237 343.1C596.488 349.351 600 357.829 600 366.67C600 375.51 596.488 383.989 590.237 390.24C583.986 396.491 575.507 400.003 566.667 400.003H490.667L466.667 477.336C464.347 484.236 459.833 490.186 453.814 494.279C447.795 498.372 440.602 500.383 433.333 500.003Z" fill="white"/>
</svg>
