<svg width="27" height="27" viewBox="0 0 27 27" fill="none" xmlns="http://www.w3.org/2000/svg">
<path d="M8.35156 17.2405V10.8912C8.35156 10.2177 8.61914 9.5717 9.09542 9.09542C9.5717 8.61914 10.2177 8.35156 10.8912 8.35156H15.9706C16.6442 8.35156 17.2902 8.61914 17.7664 9.09542C18.2427 9.5717 18.5103 10.2177 18.5103 10.8912V17.2405" stroke="black" stroke-width="2.5" stroke-linecap="round" stroke-linejoin="round"/>
<path d="M15.97 15.9683V24.8571M10.8906 24.8571V15.9683M15.97 4.53968C15.97 5.04198 15.821 5.53301 15.542 5.95065C15.2629 6.3683 14.8663 6.69382 14.4022 6.88604C13.9381 7.07827 13.4275 7.12856 12.9348 7.03057C12.4422 6.93257 11.9897 6.69069 11.6345 6.33551C11.2793 5.98033 11.0374 5.5278 10.9394 5.03515C10.8414 4.5425 10.8917 4.03185 11.0839 3.56779C11.2762 3.10372 11.6017 2.70708 12.0193 2.42801C12.437 2.14895 12.928 2 13.4303 2C14.1039 2 14.7499 2.26757 15.2261 2.74386C15.7024 3.22014 15.97 3.86612 15.97 4.53968Z" stroke="black" stroke-width="2.5" stroke-linecap="round" stroke-linejoin="round"/>
<path d="M2 15.9694H23.5873M23.5873 13.4297V18.5091M24.8571 14.6995V17.2392M3.26984 13.4297V18.5091M2 14.6995V17.2392" stroke="#2CA9BC" stroke-width="2.5" stroke-linecap="round" stroke-linejoin="round"/>
</svg>
