<svg width="24" height="24" viewBox="0 0 24 24" fill="none" xmlns="http://www.w3.org/2000/svg">
<path d="M18.3008 15.3342L16.4452 8.66753H14.6119C14.4604 8.66847 14.3102 8.6384 14.1707 8.57916C14.0313 8.51993 13.9054 8.43278 13.8008 8.32309L12.0008 6.44531L8.04524 9.61198C7.8889 9.7361 7.76889 9.90004 7.69781 10.0866C7.62674 10.2731 7.60723 10.4753 7.64134 10.672C7.67545 10.8687 7.76191 11.0526 7.89164 11.2043C8.02137 11.356 8.18957 11.47 8.37857 11.5342L12.1341 12.7898C12.4007 12.8769 12.6244 13.0617 12.7604 13.3069C12.8964 13.5521 12.9346 13.8397 12.8675 14.112L12.0008 17.5564" stroke="black" stroke-width="2.5" stroke-linecap="round" stroke-linejoin="round"/>
<path d="M8.67205 12L5.96094 15.3889" stroke="black" stroke-width="2.5" stroke-linecap="round" stroke-linejoin="round"/>
<path d="M13.1128 6.44444C14.3401 6.44444 15.3351 5.44952 15.3351 4.22222C15.3351 2.99492 14.3401 2 13.1128 2C11.8855 2 10.8906 2.99492 10.8906 4.22222C10.8906 5.44952 11.8855 6.44444 13.1128 6.44444Z" stroke="black" stroke-width="2.5" stroke-linecap="round" stroke-linejoin="round"/>
<path d="M13.8828 2.13281L17.0161 3.27726" stroke="black" stroke-width="2.5" stroke-linecap="round" stroke-linejoin="round"/>
<path d="M22 18.6693C22 19.3285 21.8045 19.973 21.4382 20.5212C21.072 21.0693 20.5514 21.4966 19.9423 21.7489C19.3332 22.0012 18.663 22.0672 18.0164 21.9386C17.3698 21.8099 16.7758 21.4925 16.3096 21.0263C15.8435 20.5601 15.526 19.9662 15.3974 19.3196C15.2688 18.673 15.3348 18.0027 15.5871 17.3937C15.8394 16.7846 16.2666 16.264 16.8148 15.8977C17.3629 15.5314 18.0074 15.3359 18.6667 15.3359C19.5507 15.3359 20.3986 15.6871 21.0237 16.3122C21.6488 16.9374 22 17.7852 22 18.6693ZM5.33333 15.3359C4.67406 15.3359 4.0296 15.5314 3.48143 15.8977C2.93327 16.264 2.50603 16.7846 2.25374 17.3937C2.00144 18.0027 1.93543 18.673 2.06405 19.3196C2.19267 19.9662 2.51014 20.5601 2.97631 21.0263C3.44249 21.4925 4.03643 21.8099 4.68303 21.9386C5.32964 22.0672 5.99986 22.0012 6.60895 21.7489C7.21803 21.4966 7.73863 21.0693 8.1049 20.5212C8.47117 19.973 8.66667 19.3285 8.66667 18.6693C8.66667 17.7852 8.31548 16.9374 7.69036 16.3122C7.06524 15.6871 6.21739 15.3359 5.33333 15.3359Z" stroke="#2CA9BC" stroke-width="2.5" stroke-linecap="round" stroke-linejoin="round"/>
</svg>
