<svg width="800" height="800" viewBox="0 0 800 800" fill="none" xmlns="http://www.w3.org/2000/svg">
<path d="M566.669 266.667C566.669 222.464 549.11 180.072 517.854 148.816C486.598 117.559 444.205 100 400.003 100C355.8 100 313.408 117.559 282.151 148.816C250.895 180.072 233.336 222.464 233.336 266.667C233.336 400 400.003 566.667 400.003 566.667C400.003 566.667 566.669 400 566.669 266.667Z" stroke="black" stroke-width="66.6667" stroke-linecap="round" stroke-linejoin="round"/>
<path d="M530.999 621.336C532.574 625.139 533.367 629.22 533.332 633.336C533.332 670.003 473.665 700.003 399.999 700.003C326.332 700.003 266.665 670.003 266.665 633.336C266.63 629.22 267.423 625.139 268.999 621.336" stroke="#2CA9BC" stroke-width="66.6667" stroke-linecap="round" stroke-linejoin="round"/>
</svg>
