<?xml version="1.0" encoding="utf-8"?><!-- Uploaded to: SVG Repo, www.svgrepo.com, Generator: SVG Repo Mixer Tools -->
<svg fill="#000000" width="800px" height="800px" viewBox="0 0 24 24" id="molecule-3" data-name="Line Color" xmlns="http://www.w3.org/2000/svg" class="icon line-color"><path id="secondary" d="M13.32,13.32l4.27,4.27M8.74,8.74,7,7m2.28,6.69L7,17.27m6.79-8L17.2,7" style="fill: none; stroke: rgb(44, 169, 188); stroke-linecap: round; stroke-linejoin: round; stroke-width: 2;"></path><path id="primary" d="M11,14a3,3,0,1,1,3-3A3,3,0,0,1,11,14Zm10,5a2,2,0,1,0-2,2A2,2,0,0,0,21,19ZM3,5A2,2,0,1,0,5,3,2,2,0,0,0,3,5ZM4,19a2,2,0,1,0,2-2A2,2,0,0,0,4,19ZM17,6a2,2,0,1,0,2-2A2,2,0,0,0,17,6Z" style="fill: none; stroke: rgb(0, 0, 0); stroke-linecap: round; stroke-linejoin: round; stroke-width: 2;"></path></svg>