<?xml version="1.0" encoding="utf-8"?><!-- Uploaded to: SVG Repo, www.svgrepo.com, Generator: SVG Repo Mixer Tools -->
<svg fill="#000000" width="800px" height="800px" viewBox="0 0 24 24" id="ping-pong-4" data-name="Line Color" xmlns="http://www.w3.org/2000/svg" class="icon line-color"><path id="primary" d="M14,6.31a6.17,6.17,0,0,1,.94.78,6.85,6.85,0,0,1,1.92,6.35,2.13,2.13,0,0,0,.54,2l2.32,2.31a1.05,1.05,0,0,1,0,1.47L18.22,20.7a1.05,1.05,0,0,1-1.47,0l-2.31-2.32a2.13,2.13,0,0,0-2-.54,6.85,6.85,0,0,1-6.35-1.92,6.53,6.53,0,0,1-.37-9.2A5.68,5.68,0,0,1,8.09,5.3" style="fill: none; stroke: rgb(0, 0, 0); stroke-linecap: round; stroke-linejoin: round; stroke-width: 2;"></path><line id="primary-2" data-name="primary" x1="8.67" y1="17.02" x2="16.02" y2="9.67" style="fill: none; stroke: rgb(0, 0, 0); stroke-linecap: round; stroke-linejoin: round; stroke-width: 2;"></line><circle id="secondary" cx="11" cy="6" r="3" style="fill: none; stroke: rgb(44, 169, 188); stroke-linecap: round; stroke-linejoin: round; stroke-width: 2;"></circle></svg>