<svg width="26" height="26" viewBox="0 0 26 26" fill="none" xmlns="http://www.w3.org/2000/svg">
<path d="M17.0078 10.75H12.0078M17.0078 10.75L19.5078 8.25H24.5078L22.0078 10.75L24.5078 13.25H19.5078L17.0078 10.75Z" stroke="#2CA9BC" stroke-width="2.5" stroke-linecap="round" stroke-linejoin="round"/>
<path d="M15.7578 24.5L13.5828 17M3.25781 24.5L5.43281 17M9.50781 3.25V2M12.0078 10.75C12.0078 10.2555 11.8612 9.7722 11.5865 9.36107C11.3118 8.94995 10.9213 8.62952 10.4645 8.4403C10.0077 8.25108 9.50504 8.20157 9.02009 8.29804C8.53513 8.3945 8.08968 8.6326 7.74004 8.98223C7.39041 9.33186 7.15231 9.77732 7.05585 10.2623C6.95939 10.7472 7.00889 11.2499 7.19811 11.7067C7.38733 12.1635 7.70776 12.554 8.11889 12.8287C8.53001 13.1034 9.01336 13.25 9.50781 13.25C10.1709 13.25 10.8067 12.9866 11.2756 12.5178C11.7444 12.0489 12.0078 11.413 12.0078 10.75Z" stroke="black" stroke-width="2.5" stroke-linecap="round" stroke-linejoin="round"/>
<path d="M14.7941 16.0625C13.7442 17.1088 12.4077 17.8205 10.9536 18.1078C9.49945 18.3951 7.99279 18.245 6.62386 17.6766C5.25493 17.1082 4.08513 16.1469 3.26217 14.9141C2.43921 13.6813 2 12.2323 2 10.75C2 9.26775 2.43921 7.81874 3.26217 6.58593C4.08513 5.35313 5.25493 4.39182 6.62386 3.8234C7.99279 3.25498 9.49945 3.10494 10.9536 3.39221C12.4077 3.67949 13.7442 4.39122 14.7941 5.4375" stroke="#2CA9BC" stroke-width="2.5" stroke-linecap="round" stroke-linejoin="round"/>
</svg>
