<svg width="800" height="800" viewBox="0 0 800 800" fill="none" xmlns="http://www.w3.org/2000/svg">
<path d="M209.108 564.483C173.78 564.483 145.046 551.717 123.499 526.374C101.952 501.03 87.8112 463.421 79.5768 408.702C67.4518 328.061 79.483 260.092 113.452 217.327C133.452 192.139 159.702 177.577 189.358 175.233C214.749 173.202 252.702 183.499 289.358 243.983C312.311 281.858 329.764 332.171 337.249 382.014C346.296 442.186 339.561 486.483 316.655 517.405C298.467 541.967 270.499 557.186 233.514 562.717C225.433 563.904 217.276 564.494 209.108 564.483Z" fill="#60A5FA"/>
<path d="M270.31 775.002C249.669 775.002 228.747 768.392 209.903 755.689C182.712 737.263 163.89 708.851 157.528 676.627C153.075 653.72 155.747 635.517 165.685 620.939C181.825 597.267 210.794 591.939 241.45 586.283C244.685 585.689 247.966 585.095 251.294 584.455C258.357 583.111 265.575 581.33 272.575 579.595C298.794 573.127 325.919 566.424 348.31 582.33C363.294 592.955 371.747 611.017 374.278 637.517C377.153 668.095 370.591 698.611 355.794 723.455C339.872 750.189 315.997 767.861 288.607 773.236C282.579 774.413 276.451 775.004 270.31 775.002Z" fill="#60A5FA"/>
<path d="M590.893 414.483C582.733 414.455 574.586 413.829 566.518 412.608C529.55 407.139 501.581 391.905 483.393 367.295C460.487 336.373 453.706 292.092 462.799 231.905C470.284 182.014 487.69 131.748 510.534 94.0141C547.003 33.7484 585.003 23.2953 610.534 25.1391C640.096 27.2953 666.299 41.6547 686.331 66.7016C720.534 109.467 732.659 177.639 720.487 258.639C712.253 313.327 698.299 350.748 676.565 376.311C654.831 401.873 626.221 414.483 590.893 414.483Z" fill="#60A5FA"/>
<path d="M529.685 625.002C523.559 625.001 517.447 624.41 511.435 623.236C483.997 617.861 460.122 600.189 444.247 573.455C429.45 548.611 422.888 518.095 425.763 487.517C428.263 460.955 436.7 442.955 451.731 432.314C474.122 416.424 501.247 423.111 527.466 429.595C534.466 431.314 541.685 433.095 548.747 434.455L558.575 436.283C589.247 441.924 618.216 447.22 634.356 470.924C644.294 485.502 646.966 503.736 642.513 526.611C636.157 558.842 617.334 587.261 590.138 605.689C571.185 618.408 550.263 625.002 529.685 625.002Z" fill="#60A5FA"/>
</svg>
