<?xml version="1.0" encoding="utf-8"?><!-- Uploaded to: SVG Repo, www.svgrepo.com, Generator: SVG Repo Mixer Tools -->
<svg fill="#000000" width="800px" height="800px" viewBox="0 0 24 24" id="discussion" data-name="Line Color" xmlns="http://www.w3.org/2000/svg" class="icon line-color"><path id="secondary" d="M6,13a2,2,0,1,0,2,2A2,2,0,0,0,6,13Zm3,7a3,3,0,0,0-3-3H6a3,3,0,0,0-3,3v1H9Z" style="fill: none; stroke: rgb(44, 169, 188); stroke-linecap: round; stroke-linejoin: round; stroke-width: 2;"></path><path id="primary" d="M15,6h5a1,1,0,0,1,1,1v3a1,1,0,0,1-1,1H16l-4,2V11a1,1,0,0,1-1-1V8" style="fill: none; stroke: rgb(0, 0, 0); stroke-linecap: round; stroke-linejoin: round; stroke-width: 2;"></path><rect id="primary-2" data-name="primary" x="6.5" y="-0.5" width="5" height="12" rx="1" transform="translate(14.5 -3.5) rotate(90)" style="fill: none; stroke: rgb(0, 0, 0); stroke-linecap: round; stroke-linejoin: round; stroke-width: 2;"></rect></svg>