<svg width="800" height="800" viewBox="0 0 800 800" fill="none" xmlns="http://www.w3.org/2000/svg">
<g clip-path="url(#clip0_1538_28)">
<path d="M399.997 733.331C215.897 733.331 66.6641 584.097 66.6641 399.997C66.6641 215.897 215.897 66.6642 399.997 66.6642C451.753 66.6253 502.804 78.6566 549.095 101.802C595.386 124.948 635.642 158.57 666.664 199.997H576.331C537.838 166.056 490.37 143.943 439.621 136.311C388.873 128.679 337 135.853 290.227 156.971C243.454 178.09 203.769 212.256 175.933 255.37C148.097 298.485 133.293 348.715 133.297 400.034C133.302 451.354 148.114 501.582 175.957 544.691C203.8 587.801 243.491 621.961 290.267 643.071C337.044 664.182 388.918 671.347 439.665 663.707C490.413 656.066 537.877 633.945 576.364 599.997H666.697C635.672 641.429 595.411 675.054 549.113 698.2C502.816 721.346 451.758 733.375 399.997 733.331ZM633.331 533.331V433.331H366.664V366.664H633.331V266.664L799.997 399.997L633.331 533.331Z" fill="black"/>
</g>
<defs>
<clipPath id="clip0_1538_28">
<rect width="800" height="800" fill="white"/>
</clipPath>
</defs>
</svg>
