<?xml version="1.0" ?>

<!-- Uploaded to: SVG Repo, www.svgrepo.com, Generator: SVG Repo Mixer Tools -->
<svg fill="#000000" width="800px" height="800px" viewBox="0 0 24 24" version="1.1" xml:space="preserve" xmlns="http://www.w3.org/2000/svg" xmlns:xlink="http://www.w3.org/1999/xlink">

<g id="Guides"/>

<g id="_x32_0"/>

<g id="_x31_9"/>

<g id="_x31_8"/>

<g id="_x31_7"/>

<g id="_x31_6"/>

<g id="_x31_5"/>

<g id="_x31_4"/>

<g id="_x31_3"/>

<g id="_x31_2"/>

<g id="_x31_1"/>

<g id="_x31_0"/>

<g id="_x30_9"/>

<g id="_x30_8"/>

<g id="_x30_7"/>

<g id="_x30_6"/>

<g id="_x30_5"/>

<g id="_x30_4"/>

<g id="_x30_3"/>

<g id="_x30_2"/>

<g id="_x30_1">

<g>

<path d="M17.9619141,9.204771c-0.359375-3.7275395-3.3183594-6.7363286-7.0371094-7.1542974    c-2.2783203-0.2509764-4.5625,0.4658203-6.2568359,1.9814453C2.9726563,5.547544,2,7.7223487,2,9.9987164    c0,3.2880859,1.9707031,6.203125,5,7.3525391v2.6474609c0,1.1025391,0.8974609,2,2,2h2c1.1025391,0,2-0.8974609,2-2    l0.0185547-2.5898438C16.3173828,16.0651226,18.3037109,12.7682476,17.9619141,9.204771z M6.0009766,5.5231299    c1.1132813-0.9960938,2.5097656-1.5244141,3.9921875-1.5244141c0.234375,0,0.4707031,0.0126953,0.7089844,0.0400391    c2.7392578,0.3076172,5.0048828,2.6103516,5.2695313,5.3574224c0.0872192,0.9091797-0.0413818,1.7893677-0.3273315,2.6025391    H4.3522339C4.1303101,11.3676739,4,10.6970196,4,9.9987164C4,8.2907085,4.7294922,6.6598487,6.0009766,5.5231299z     M12.2646484,15.5563335C11.4960938,15.8688335,11,16.5885601,11,17.3883648v2.6103516H9v-2.6474609    c0-0.78125-0.484375-1.4804688-1.234375-1.7822266c-0.8803101-0.3533325-1.637085-0.897522-2.239624-1.5703125h8.9389038    C13.8718262,14.6598492,13.1333618,15.2023907,12.2646484,15.5563335z"/>

<path d="M19,15.9987164c-1.6542969,0-3,1.3457031-3,3s1.3457031,3,3,3s3-1.3457031,3-3S20.6542969,15.9987164,19,15.9987164z     M19,19.9987164c-0.5517578,0-1-0.4482422-1-1s0.4482422-1,1-1s1,0.4482422,1,1S19.5517578,19.9987164,19,19.9987164z"/>

</g>

</g>

</svg>