<svg width="800" height="800" viewBox="0 0 800 800" fill="none" xmlns="http://www.w3.org/2000/svg">
<path fill-rule="evenodd" clip-rule="evenodd" d="M66.6641 149.997C66.6641 103.974 103.974 66.6641 149.997 66.6641H649.997C696.021 66.6641 733.331 103.974 733.331 149.997V649.997C733.331 696.021 696.021 733.331 649.997 733.331H149.997C103.974 733.331 66.6641 696.021 66.6641 649.997V149.997ZM416.664 183.331C435.074 183.331 449.997 198.255 449.997 216.664V349.997H583.331C601.741 349.997 616.664 364.921 616.664 383.331V416.664C616.664 435.074 601.741 449.997 583.331 449.997H449.997V583.331C449.997 601.741 435.074 616.664 416.664 616.664H383.331C364.921 616.664 349.997 601.741 349.997 583.331V449.997H216.664C198.255 449.997 183.331 435.074 183.331 416.664V383.331C183.331 364.921 198.255 349.997 216.664 349.997H349.997V216.664C349.997 198.255 364.921 183.331 383.331 183.331H416.664Z" fill="black"/>
</svg>
