<svg width="800" height="800" viewBox="0 0 800 800" fill="none" xmlns="http://www.w3.org/2000/svg">
<path d="M400 200C418.41 200 433.333 214.924 433.333 233.333V366.667H566.667C585.077 366.667 600 381.59 600 400C600 418.41 585.077 433.333 566.667 433.333H433.333V566.667C433.333 585.077 418.41 600 400 600C381.59 600 366.667 585.077 366.667 566.667V433.333H233.333C214.924 433.333 200 418.41 200 400C200 381.59 214.924 366.667 233.333 366.667H366.667V233.333C366.667 214.924 381.59 200 400 200Z" fill="black"/>
<path fill-rule="evenodd" clip-rule="evenodd" d="M66.6641 149.997C66.6641 103.974 103.974 66.6641 149.997 66.6641H649.997C696.021 66.6641 733.331 103.974 733.331 149.997V649.997C733.331 696.021 696.021 733.331 649.997 733.331H149.997C103.974 733.331 66.6641 696.021 66.6641 649.997V149.997ZM149.997 133.331C140.793 133.331 133.331 140.793 133.331 149.997V649.997C133.331 659.201 140.793 666.664 149.997 666.664H649.997C659.201 666.664 666.664 659.201 666.664 649.997V149.997C666.664 140.793 659.201 133.331 649.997 133.331H149.997Z" fill="black"/>
</svg>
