<svg width="800" height="800" viewBox="0 0 800 800" fill="none" xmlns="http://www.w3.org/2000/svg">
<path fill-rule="evenodd" clip-rule="evenodd" d="M333.333 166.667C241.286 166.667 166.667 241.286 166.667 333.333C166.667 425.38 241.286 500 333.333 500C379.367 500 420.987 481.383 451.183 451.183C481.383 420.987 500 379.367 500 333.333C500 241.286 425.38 166.667 333.333 166.667ZM100 333.333C100 204.467 204.467 100 333.333 100C462.2 100 566.667 204.467 566.667 333.333C566.667 385.73 549.367 434.13 520.21 473.07L690.237 643.097C703.253 656.113 703.253 677.22 690.237 690.237C677.22 703.253 656.113 703.253 643.097 690.237L473.07 520.21C434.13 549.367 385.73 566.667 333.333 566.667C204.467 566.667 100 462.2 100 333.333Z" fill="black"/>
<circle cx="333" cy="336" r="125" fill="black"/>
</svg>
